<svg width="448" height="512" viewBox="0 0 448 512" fill="none" xmlns="http://www.w3.org/2000/svg">
<g clip-path="url(#clip0_1_11)">
<path d="M439.55 236.05L244 40.45C238.587 35.0414 231.247 32.0033 223.595 32.0033C215.943 32.0033 208.603 35.0414 203.19 40.45L162.53 81.08L214.05 132.6C241.11 123.46 266.73 149.37 257.44 176.28L307.1 225.94C341.33 214.14 368.28 256.94 342.57 282.63C316.08 309.12 272.36 279.76 286.57 245.29L240.22 199V320.85C265.52 333.39 262.48 362.7 249.3 375.85C242.861 382.286 234.129 385.901 225.025 385.901C215.921 385.901 207.189 382.286 200.75 375.85C183.18 358.25 189.68 328.94 212 319.85V196.85C191.2 188.34 187.4 166.11 193.36 151.85L142.57 101L8.45 235.14C3.03899 240.552 -0.000793457 247.892 -0.000793457 255.545C-0.000793457 263.198 3.03899 270.538 8.45 275.95L204.06 471.55C209.472 476.958 216.809 479.996 224.46 479.996C232.111 479.996 239.448 476.958 244.86 471.55L439.55 276.86C444.961 271.448 448.001 264.108 448.001 256.455C448.001 248.802 444.961 241.462 439.55 236.05V236.05Z" fill="#6C757D"/>
</g>
<defs>
<clipPath id="clip0_1_11">
<rect width="448" height="512" fill="white"/>
</clipPath>
</defs>
</svg>
