<svg width="512" height="512" viewBox="0 0 512 512" fill="none" xmlns="http://www.w3.org/2000/svg">
<rect width="512" height="512" fill="white"/>
<path d="M256 0C114.6 0 0 114.6 0 256C0 397.4 114.6 512 256 512C397.4 512 512 397.4 512 256C512 114.6 397.4 0 256 0ZM256 80C278.09 80 296 97.91 296 120C296 142.09 278.1 160 256 160C233.9 160 216 142.1 216 120C216 97.9 233.9 80 256 80ZM374.6 215.1L315.3 232C311.6 233.1 307.8 233.6 304 234.4V296.72L334.64 384.06C339.031 396.56 332.452 410.25 319.95 414.65C317.3 415.6 314.6 416 312 416C302.094 416 292.81 409.812 289.36 399.94L263.51 329.29C260.948 322.288 251.05 322.288 248.48 329.29L222.63 399.94C219.2 409.8 209.9 416 200 416C197.359 416 194.688 415.563 192.047 414.656C179.547 410.25 172.967 396.566 177.357 384.066L208 296.7V234.4C204.2 233.6 200.4 233.1 196.7 232L137.4 215.1C124.7 211.4 117.3 198.2 120.9 185.4C124.5 172.6 137.9 165.2 150.6 168.9L209.85 185.84C240.02 194.463 272 194.463 302.16 185.84L361.41 168.9C374.11 165.119 387.43 172.619 391.08 185.37C394.7 198.2 387.3 211.4 374.6 215.1Z" fill="#6C757D"/>
</svg>
